<?xml version="1.0" encoding="UTF-8"?>
<!DOCTYPE svg PUBLIC "-//W3C//DTD SVG 1.1//EN" "http://www.w3.org/Graphics/SVG/1.1/DTD/svg11.dtd">
<!-- Creator: CorelDRAW 2019 -->
<svg xmlns="http://www.w3.org/2000/svg" xml:space="preserve" width="8.26772in" height="11.6929in" version="1.1" style="shape-rendering:geometricPrecision; text-rendering:geometricPrecision; image-rendering:optimizeQuality; fill-rule:evenodd; clip-rule:evenodd"
viewBox="0 0 8267.72 11692.91"
 xmlns:xlink="http://www.w3.org/1999/xlink">
 <defs>
  <style type="text/css">
   <![CDATA[
    .str0 {stroke:#FF6600;stroke-width:6.94;stroke-miterlimit:2.61313}
    .fil0 {fill:#FF6600}
    .fil2 {fill:white}
    .fil1 {fill:#FF6600;fill-rule:nonzero}
   ]]>
  </style>
 </defs>
 <g id="Layer_x0020_1">
  <metadata id="CorelCorpID_0Corel-Layer"/>
  <path class="fil0" d="M1562.91 6996.94l3146.21 0 1608.62 0 -606.93 -1192.02 895.44 0c1077.28,2018.52 1133.28,1932.61 -610.76,1886.03l96.06 -333.33 -4348.46 1.39c0.09,-1.19 0.12,-2.32 0.22,-3.52l-180.4 0c-65.74,0 -119.52,-53.78 -119.52,-119.51l0 -119.51c0,-65.74 53.78,-119.52 119.52,-119.52z"/>
  <path class="fil1" d="M1562.91 6993.47l4749.17 0 -606.93 -1192.02 903.17 0 0.99 1.85c58.94,110.43 116.87,218.37 171.44,320.04 428.71,798.79 645.4,1202.56 580.56,1402.78 -66.61,205.7 -426.68,195.29 -1154.74,174.24 -67.29,-1.94 -137.74,-3.99 -211.16,-5.94l-4.48 -0.12 96.02 -333.21 -4347.55 1.39 0.22 -3.51 -176.72 0c-33.83,0 -64.58,-13.83 -86.87,-36.12 -22.29,-22.28 -36.13,-53.04 -36.13,-86.86l0 -119.51c0,-33.82 13.83,-64.58 36.12,-86.87 22.29,-22.28 53.04,-36.12 86.87,-36.12zm3146.21 6.94l-3146.21 0c-31.91,0 -60.92,13.06 -81.96,34.09 -21.03,21.03 -34.09,50.05 -34.09,81.95l0 119.51c0,31.91 13.06,60.92 34.09,81.95 21.03,21.03 50.05,34.09 81.95,34.09l184.18 0 -0.3 3.54 4349.35 -1.39 -96.09 333.46c72.09,1.93 140.92,3.93 206.71,5.83 724.6,20.95 1082.94,31.31 1147.96,-169.43 63.93,-197.43 -152.29,-600.32 -580.07,-1397.38 -52.83,-98.44 -108.98,-203.04 -170.45,-318.23l-887.71 0 606.93 1192.02 -1614.28 0z"/>
  <rect class="fil0 str0" x="1620.76" y="6205.59" width="1707.06" height="358.54" rx="139.92" ry="119.52"/>
  <rect class="fil0 str0" x="188.95" y="6186.87" width="1018.14" height="358.54" rx="83.45" ry="119.52"/>
  <rect class="fil0 str0" x="1873.64" y="5384.72" width="3385.25" height="358.54" rx="277.48" ry="119.52"/>
  <polygon class="fil0 str0" points="4585.35,2044.46 5496.09,3621.92 6406.84,5199.37 5553.35,5199.37 5069.93,4362.08 4585.35,3522.75 4100.77,4362.08 3617.35,5199.37 2763.86,5199.37 3674.61,3621.92 "/>
  <polygon class="fil0 str0" points="4585.35,2044.46 4649.8,2156.09 4520.9,2156.09 "/>
  <polygon class="fil0 str0" points="4585.35,2044.46 4649.8,2156.09 4520.9,2156.09 "/>
  <rect class="fil2" x="949.26" y="1779.65" width="5989.59" height="376.44"/>
 </g>
</svg>
